<?xml version="1.0" encoding="UTF-8" standalone="no"?>
<!DOCTYPE svg PUBLIC "-//W3C//DTD SVG 1.1//EN" "http://www.w3.org/Graphics/SVG/1.1/DTD/svg11.dtd">
<svg width="100%" height="100%" viewBox="0 0 175 16" version="1.1" xmlns="http://www.w3.org/2000/svg" xmlns:xlink="http://www.w3.org/1999/xlink" xml:space="preserve" xmlns:serif="http://www.serif.com/" style="fill-rule:evenodd;clip-rule:evenodd;stroke-linejoin:round;stroke-miterlimit:2;">
    <g transform="matrix(1,0,0,1,0,-331.012)">
        <g id="_querybook" transform="matrix(1.06247,0,0,1.33333,0,331.012)">
            <rect x="0" y="0" width="164.687" height="12" style="fill:none;"/>
            <clipPath id="_clip1">
                <rect x="0" y="0" width="164.687" height="12"/>
            </clipPath>
            <g clip-path="url(#_clip1)">
                <g transform="matrix(0.941203,0,0,0.75,348.245,-39.0607)">
                    <g>
                        <g transform="matrix(1,0,0,1,0,-0.120671)">
                            <g transform="matrix(1,0,0,1,-370,88.129)">
                                <g id="dataos_logo">
                                    <path id="Path_6" d="M13.534,-28.408C13.543,-27.772 13.465,-27.137 13.301,-26.522C13.163,-26.011 12.942,-25.526 12.646,-25.087C12.37,-24.686 12.028,-24.335 11.633,-24.05C11.229,-23.761 10.787,-23.53 10.318,-23.366C9.812,-23.189 9.289,-23.063 8.758,-22.992C8.18,-22.913 7.597,-22.874 7.013,-22.875L0,-22.875L0,-33.924L7,-33.924C7.584,-33.925 8.167,-33.886 8.745,-33.807C9.277,-33.735 9.801,-33.61 10.308,-33.433C10.778,-33.269 11.224,-33.04 11.631,-32.753C12.029,-32.47 12.373,-32.119 12.648,-31.716C12.943,-31.276 13.164,-30.792 13.303,-30.281C13.466,-29.67 13.544,-29.04 13.534,-28.408ZM10.527,-28.408C10.536,-28.877 10.467,-29.345 10.322,-29.791C10.195,-30.168 9.967,-30.503 9.663,-30.76C9.315,-31.037 8.91,-31.232 8.477,-31.331C7.891,-31.468 7.291,-31.531 6.69,-31.52L2.984,-31.52L2.984,-25.28L6.69,-25.28C7.291,-25.269 7.89,-25.332 8.475,-25.469C8.909,-25.569 9.315,-25.767 9.661,-26.048C9.964,-26.309 10.192,-26.646 10.32,-27.025C10.465,-27.471 10.535,-27.939 10.526,-28.408L10.527,-28.408ZM25.62,-22.875L25.62,-23.961C25.226,-23.746 24.816,-23.56 24.394,-23.406C23.948,-23.243 23.493,-23.106 23.031,-22.996C22.55,-22.882 22.062,-22.797 21.571,-22.743C21.068,-22.687 20.562,-22.659 20.055,-22.659C19.476,-22.657 18.898,-22.713 18.33,-22.827C17.811,-22.926 17.313,-23.111 16.855,-23.374C16.436,-23.616 16.082,-23.955 15.822,-24.363C15.55,-24.815 15.414,-25.336 15.432,-25.863C15.408,-26.536 15.625,-27.197 16.043,-27.725C16.548,-28.286 17.192,-28.706 17.909,-28.943C18.936,-29.304 20,-29.55 21.081,-29.675C22.36,-29.846 23.873,-29.98 25.62,-30.075L25.62,-30.308C25.618,-30.498 25.568,-30.685 25.475,-30.851C25.35,-31.058 25.166,-31.223 24.948,-31.326C24.618,-31.488 24.266,-31.6 23.903,-31.66C23.344,-31.755 22.777,-31.799 22.21,-31.789C21.676,-31.789 21.141,-31.761 20.61,-31.705C20.082,-31.649 19.573,-31.573 19.082,-31.476C18.591,-31.379 18.125,-31.267 17.682,-31.14C17.243,-31.011 16.843,-30.878 16.482,-30.74L16.482,-33.395C16.857,-33.492 17.278,-33.585 17.744,-33.676C18.21,-33.767 18.695,-33.846 19.2,-33.913C19.704,-33.98 20.213,-34.033 20.728,-34.074C21.243,-34.115 21.736,-34.135 22.207,-34.134C23.067,-34.14 23.926,-34.064 24.772,-33.905C25.48,-33.779 26.163,-33.538 26.794,-33.193C27.329,-32.9 27.785,-32.48 28.121,-31.971C28.452,-31.441 28.618,-30.825 28.6,-30.2L28.6,-22.872L25.62,-22.875ZM25.62,-27.917C24.473,-27.874 23.498,-27.813 22.696,-27.732C21.894,-27.651 21.227,-27.558 20.696,-27.451C20.27,-27.373 19.852,-27.257 19.446,-27.105C19.201,-27.015 18.972,-26.887 18.766,-26.727C18.637,-26.629 18.541,-26.494 18.489,-26.341C18.456,-26.226 18.439,-26.107 18.437,-25.987C18.437,-25.856 18.471,-25.727 18.537,-25.613C18.626,-25.475 18.753,-25.364 18.903,-25.295C19.124,-25.189 19.36,-25.116 19.603,-25.078C19.966,-25.019 20.333,-24.993 20.7,-25C21.179,-25 21.658,-25.037 22.131,-25.113C22.58,-25.184 23.024,-25.288 23.458,-25.423C23.862,-25.549 24.256,-25.705 24.637,-25.89C24.98,-26.055 25.309,-26.248 25.622,-26.465L25.62,-27.917ZM38.12,-31.517L38.12,-22.873L35.141,-22.873L35.141,-31.52L30.453,-31.52L30.453,-33.92L42.822,-33.92L42.822,-31.52L38.12,-31.517ZM54.156,-22.873L54.156,-23.959C53.762,-23.744 53.352,-23.558 52.93,-23.404C52.485,-23.243 52.031,-23.108 51.57,-23C51.089,-22.886 50.601,-22.801 50.11,-22.747C49.607,-22.691 49.101,-22.663 48.594,-22.663C48.015,-22.661 47.437,-22.717 46.869,-22.831C46.35,-22.93 45.852,-23.115 45.394,-23.378C44.975,-23.62 44.621,-23.959 44.361,-24.367C44.089,-24.819 43.953,-25.34 43.971,-25.867C43.947,-26.54 44.164,-27.201 44.582,-27.729C45.087,-28.29 45.731,-28.71 46.448,-28.947C47.475,-29.308 48.539,-29.554 49.62,-29.679C50.899,-29.85 52.412,-29.984 54.159,-30.079L54.159,-30.312C54.157,-30.502 54.107,-30.689 54.014,-30.855C53.889,-31.062 53.705,-31.227 53.487,-31.33C53.157,-31.492 52.805,-31.604 52.442,-31.664C51.883,-31.759 51.316,-31.803 50.749,-31.793C50.215,-31.793 49.68,-31.765 49.149,-31.709C48.621,-31.653 48.112,-31.577 47.621,-31.48C47.13,-31.383 46.664,-31.271 46.221,-31.144C45.782,-31.015 45.382,-30.882 45.021,-30.744L45.021,-33.399C45.396,-33.496 45.817,-33.589 46.283,-33.68C46.749,-33.771 47.234,-33.85 47.739,-33.917C48.243,-33.984 48.752,-34.037 49.267,-34.078C49.782,-34.119 50.275,-34.139 50.746,-34.138C51.606,-34.144 52.465,-34.068 53.311,-33.909C54.019,-33.783 54.702,-33.542 55.333,-33.197C55.868,-32.904 56.324,-32.484 56.66,-31.975C56.989,-31.448 57.155,-30.835 57.139,-30.214L57.139,-22.886L54.156,-22.873ZM54.156,-27.915C53.009,-27.872 52.034,-27.811 51.232,-27.73C50.43,-27.649 49.763,-27.556 49.232,-27.449C48.806,-27.371 48.388,-27.255 47.982,-27.103C47.738,-27.013 47.509,-26.885 47.304,-26.725C47.175,-26.627 47.079,-26.492 47.027,-26.339C46.994,-26.224 46.977,-26.105 46.975,-25.985C46.975,-25.854 47.009,-25.725 47.075,-25.611C47.164,-25.473 47.291,-25.362 47.441,-25.293C47.662,-25.187 47.898,-25.114 48.141,-25.076C48.503,-25.017 48.869,-24.99 49.235,-24.996C49.714,-24.996 50.193,-25.033 50.666,-25.109C51.118,-25.18 51.563,-25.284 52,-25.42C52.404,-25.546 52.798,-25.702 53.178,-25.887C53.521,-26.052 53.85,-26.245 54.163,-26.462L54.156,-27.915ZM73.938,-28.39C73.961,-27.504 73.777,-26.624 73.4,-25.821C73.055,-25.117 72.548,-24.506 71.921,-24.036C71.256,-23.551 70.504,-23.199 69.706,-23C68.805,-22.769 67.878,-22.656 66.948,-22.664C66.013,-22.657 65.08,-22.769 64.174,-23C63.369,-23.201 62.61,-23.554 61.939,-24.042C61.308,-24.51 60.797,-25.122 60.451,-25.827C60.074,-26.63 59.89,-27.51 59.913,-28.396C59.906,-29.005 59.989,-29.612 60.162,-30.196C60.317,-30.713 60.554,-31.201 60.862,-31.644C61.162,-32.07 61.53,-32.444 61.952,-32.75C62.391,-33.068 62.87,-33.329 63.375,-33.526C63.917,-33.738 64.48,-33.892 65.054,-33.985C65.679,-34.086 66.311,-34.136 66.944,-34.134C67.874,-34.142 68.801,-34.029 69.702,-33.798C70.502,-33.597 71.255,-33.243 71.92,-32.756C72.549,-32.284 73.056,-31.669 73.4,-30.962C73.778,-30.159 73.964,-29.279 73.942,-28.392L73.938,-28.39ZM72.901,-28.39C72.915,-29.1 72.785,-29.806 72.519,-30.465C72.272,-31.055 71.884,-31.576 71.389,-31.981C70.839,-32.417 70.205,-32.735 69.527,-32.914C68.684,-33.139 67.814,-33.246 66.942,-33.232C66.067,-33.245 65.194,-33.137 64.349,-32.91C63.666,-32.728 63.027,-32.409 62.471,-31.973C61.971,-31.568 61.578,-31.046 61.328,-30.453C61.061,-29.799 60.929,-29.097 60.942,-28.39C60.928,-27.679 61.06,-26.973 61.328,-26.315C61.58,-25.724 61.973,-25.203 62.474,-24.8C63.03,-24.364 63.669,-24.046 64.352,-23.867C65.198,-23.643 66.07,-23.536 66.945,-23.549C67.817,-23.535 68.687,-23.642 69.53,-23.867C70.208,-24.046 70.842,-24.364 71.392,-24.8C71.887,-25.205 72.275,-25.726 72.522,-26.316C72.788,-26.975 72.918,-27.681 72.904,-28.391L72.901,-28.39ZM85.807,-32.29C85.598,-32.392 85.356,-32.501 85.083,-32.616C84.779,-32.742 84.465,-32.845 84.146,-32.926C83.755,-33.025 83.359,-33.101 82.96,-33.155C82.475,-33.219 81.986,-33.25 81.497,-33.247C80.917,-33.252 80.338,-33.214 79.764,-33.134C79.321,-33.077 78.888,-32.959 78.477,-32.784C78.165,-32.653 77.89,-32.447 77.677,-32.184C77.49,-31.937 77.393,-31.634 77.4,-31.324C77.396,-31.057 77.489,-30.796 77.661,-30.592C77.859,-30.364 78.099,-30.175 78.368,-30.037C78.703,-29.861 79.052,-29.715 79.413,-29.6C79.813,-29.467 80.236,-29.343 80.683,-29.23C81.13,-29.117 81.591,-29 82.066,-28.88C82.54,-28.762 83.001,-28.635 83.449,-28.498C83.88,-28.367 84.304,-28.214 84.719,-28.04C85.09,-27.887 85.441,-27.688 85.764,-27.449C86.047,-27.239 86.287,-26.977 86.471,-26.676C86.649,-26.372 86.739,-26.024 86.732,-25.671C86.741,-25.297 86.661,-24.926 86.499,-24.589C86.346,-24.282 86.131,-24.01 85.868,-23.789C85.587,-23.557 85.273,-23.37 84.935,-23.234C84.566,-23.083 84.183,-22.965 83.792,-22.884C83.379,-22.798 82.96,-22.738 82.539,-22.705C82.108,-22.67 81.683,-22.653 81.265,-22.653C80.391,-22.646 79.518,-22.716 78.656,-22.862C77.899,-22.996 77.153,-23.186 76.425,-23.433L76.425,-24.663C77.139,-24.235 77.921,-23.932 78.737,-23.77C79.581,-23.606 80.439,-23.526 81.298,-23.529C81.884,-23.526 82.47,-23.565 83.051,-23.643C83.528,-23.703 83.995,-23.823 84.442,-24.001C84.794,-24.136 85.107,-24.356 85.355,-24.64C85.576,-24.912 85.691,-25.255 85.681,-25.605C85.685,-25.893 85.593,-26.175 85.42,-26.405C85.227,-26.652 84.986,-26.858 84.713,-27.012C84.381,-27.201 84.031,-27.356 83.668,-27.474C83.268,-27.607 82.846,-27.732 82.402,-27.848C81.958,-27.964 81.499,-28.076 81.024,-28.184C80.55,-28.294 80.091,-28.413 79.646,-28.542C79.217,-28.665 78.794,-28.81 78.38,-28.976C78.01,-29.121 77.659,-29.312 77.335,-29.543C77.052,-29.745 76.812,-30 76.628,-30.295C76.45,-30.594 76.36,-30.936 76.367,-31.284C76.361,-31.624 76.432,-31.961 76.576,-32.269C76.714,-32.554 76.91,-32.808 77.151,-33.013C77.408,-33.231 77.697,-33.408 78.007,-33.54C78.345,-33.685 78.696,-33.798 79.056,-33.876C79.438,-33.961 79.825,-34.022 80.214,-34.058C80.614,-34.095 81.011,-34.114 81.404,-34.114C81.833,-34.114 82.239,-34.095 82.622,-34.058C83.005,-34.021 83.375,-33.971 83.731,-33.909C84.088,-33.848 84.436,-33.777 84.776,-33.696C85.116,-33.615 85.46,-33.53 85.809,-33.439L85.807,-32.29Z" style="fill:rgb(43,50,60);fill-rule:nonzero;"/>
                                </g>
                            </g>
                        </g>
                        <g transform="matrix(1.31608,0,0,1.31608,-400.139,55.4044)">
                            <g transform="matrix(11.3975,0,0,11.3975,92.3217,7.38223)">
                                <rect x="-0.001" y="-0" width="0.455" height="0.078" style="fill:rgb(43,50,60);fill-rule:nonzero;"/>
                            </g>
                            <g transform="matrix(11.3975,0,0,11.3975,97.47,7.38223)">
                                <path d="M0.449,0.205L0.449,-0.084L0.442,-0.084C0.436,-0.074 0.427,-0.061 0.415,-0.046C0.404,-0.031 0.388,-0.018 0.367,-0.006C0.346,0.006 0.318,0.011 0.283,0.011C0.237,0.011 0.197,-0 0.162,-0.023C0.127,-0.046 0.1,-0.079 0.081,-0.121C0.061,-0.164 0.051,-0.214 0.051,-0.271C0.051,-0.329 0.061,-0.378 0.081,-0.42C0.1,-0.463 0.128,-0.495 0.163,-0.518C0.198,-0.541 0.238,-0.553 0.284,-0.553C0.32,-0.553 0.348,-0.547 0.368,-0.535C0.389,-0.523 0.405,-0.51 0.416,-0.495C0.427,-0.48 0.436,-0.468 0.442,-0.459L0.452,-0.459L0.452,-0.545L0.533,-0.545L0.533,0.205L0.449,0.205ZM0.294,-0.064C0.328,-0.064 0.356,-0.073 0.379,-0.09C0.402,-0.108 0.42,-0.133 0.432,-0.164C0.444,-0.195 0.45,-0.232 0.45,-0.273C0.45,-0.313 0.444,-0.349 0.433,-0.38C0.421,-0.41 0.403,-0.434 0.38,-0.452C0.357,-0.469 0.328,-0.477 0.294,-0.477C0.259,-0.477 0.229,-0.468 0.205,-0.45C0.182,-0.432 0.164,-0.407 0.153,-0.377C0.141,-0.346 0.135,-0.311 0.135,-0.273C0.135,-0.234 0.141,-0.199 0.153,-0.167C0.165,-0.135 0.183,-0.11 0.206,-0.092C0.23,-0.073 0.259,-0.064 0.294,-0.064Z" style="fill:rgb(43,50,60);fill-rule:nonzero;"/>
                            </g>
                            <g transform="matrix(11.3975,0,0,11.3975,104.415,7.38223)">
                                <path d="M0.42,-0.223L0.42,-0.545L0.504,-0.545L0.504,-0L0.42,-0L0.42,-0.092L0.415,-0.092C0.402,-0.065 0.382,-0.041 0.355,-0.022C0.328,-0.003 0.294,0.007 0.253,0.007C0.219,0.007 0.188,-0 0.162,-0.015C0.135,-0.03 0.115,-0.053 0.099,-0.084C0.084,-0.114 0.077,-0.152 0.077,-0.199L0.077,-0.545L0.161,-0.545L0.161,-0.205C0.161,-0.165 0.172,-0.133 0.194,-0.109C0.216,-0.086 0.245,-0.074 0.28,-0.074C0.301,-0.074 0.322,-0.079 0.344,-0.09C0.365,-0.1 0.383,-0.117 0.398,-0.139C0.413,-0.161 0.42,-0.189 0.42,-0.223Z" style="fill:rgb(43,50,60);fill-rule:nonzero;"/>
                            </g>
                            <g transform="matrix(11.3975,0,0,11.3975,111.037,7.38223)">
                                <path d="M0.305,0.011C0.253,0.011 0.208,-0 0.17,-0.024C0.132,-0.047 0.102,-0.08 0.082,-0.122C0.061,-0.164 0.051,-0.213 0.051,-0.268C0.051,-0.324 0.061,-0.374 0.082,-0.416C0.102,-0.459 0.131,-0.492 0.168,-0.517C0.205,-0.541 0.248,-0.553 0.297,-0.553C0.325,-0.553 0.353,-0.548 0.381,-0.538C0.409,-0.529 0.434,-0.514 0.457,-0.492C0.479,-0.471 0.498,-0.443 0.511,-0.408C0.525,-0.374 0.531,-0.331 0.531,-0.28L0.531,-0.244L0.111,-0.244L0.111,-0.317L0.446,-0.317C0.446,-0.348 0.44,-0.375 0.428,-0.399C0.416,-0.423 0.398,-0.442 0.376,-0.456C0.354,-0.47 0.327,-0.477 0.297,-0.477C0.263,-0.477 0.235,-0.469 0.21,-0.453C0.186,-0.436 0.167,-0.415 0.154,-0.388C0.141,-0.362 0.135,-0.334 0.135,-0.304L0.135,-0.256C0.135,-0.214 0.142,-0.18 0.156,-0.151C0.171,-0.123 0.191,-0.101 0.216,-0.086C0.242,-0.071 0.272,-0.064 0.305,-0.064C0.327,-0.064 0.347,-0.067 0.365,-0.073C0.383,-0.08 0.399,-0.089 0.412,-0.102C0.425,-0.114 0.435,-0.13 0.442,-0.149L0.523,-0.126C0.514,-0.099 0.5,-0.075 0.48,-0.054C0.46,-0.033 0.435,-0.017 0.405,-0.006C0.376,0.006 0.342,0.011 0.305,0.011Z" style="fill:rgb(43,50,60);fill-rule:nonzero;"/>
                            </g>
                            <g transform="matrix(11.3975,0,0,11.3975,117.675,7.38223)">
                                <path d="M0.077,-0L0.077,-0.545L0.158,-0.545L0.158,-0.463L0.163,-0.463C0.173,-0.49 0.191,-0.512 0.217,-0.529C0.243,-0.546 0.273,-0.554 0.305,-0.554C0.312,-0.554 0.319,-0.554 0.328,-0.554C0.338,-0.553 0.345,-0.553 0.349,-0.553L0.349,-0.467C0.347,-0.468 0.34,-0.469 0.33,-0.471C0.32,-0.472 0.309,-0.473 0.298,-0.473C0.272,-0.473 0.248,-0.468 0.227,-0.456C0.207,-0.445 0.19,-0.43 0.178,-0.411C0.166,-0.392 0.161,-0.37 0.161,-0.345L0.161,-0L0.077,-0Z" style="fill:rgb(43,50,60);fill-rule:nonzero;"/>
                            </g>
                            <g transform="matrix(11.3975,0,0,11.3975,122.111,7.38223)">
                                <path d="M0.131,0.205C0.116,0.205 0.104,0.203 0.093,0.201C0.082,0.199 0.074,0.197 0.07,0.195L0.091,0.121C0.111,0.126 0.129,0.128 0.145,0.126C0.161,0.125 0.174,0.118 0.187,0.106C0.199,0.093 0.21,0.073 0.22,0.045L0.236,0.003L0.034,-0.545L0.125,-0.545L0.276,-0.111L0.281,-0.111L0.432,-0.545L0.523,-0.545L0.291,0.08C0.281,0.108 0.268,0.131 0.252,0.15C0.237,0.168 0.219,0.182 0.199,0.191C0.179,0.2 0.156,0.205 0.131,0.205Z" style="fill:rgb(43,50,60);fill-rule:nonzero;"/>
                            </g>
                            <g transform="matrix(11.3975,0,0,11.3975,128.457,7.38223)">
                                <path d="M0.088,-0L0.088,-0.727L0.172,-0.727L0.172,-0.459L0.179,-0.459C0.185,-0.468 0.194,-0.48 0.205,-0.495C0.216,-0.51 0.232,-0.523 0.252,-0.535C0.273,-0.547 0.301,-0.553 0.337,-0.553C0.383,-0.553 0.423,-0.541 0.458,-0.518C0.493,-0.495 0.52,-0.463 0.54,-0.42C0.56,-0.378 0.57,-0.329 0.57,-0.271C0.57,-0.214 0.56,-0.164 0.54,-0.121C0.52,-0.079 0.493,-0.046 0.458,-0.023C0.424,-0 0.384,0.011 0.338,0.011C0.303,0.011 0.275,0.006 0.254,-0.006C0.233,-0.018 0.217,-0.031 0.205,-0.046C0.194,-0.061 0.185,-0.074 0.179,-0.084L0.169,-0.084L0.169,-0L0.088,-0ZM0.17,-0.273C0.17,-0.232 0.176,-0.195 0.189,-0.164C0.201,-0.133 0.218,-0.108 0.241,-0.09C0.265,-0.073 0.293,-0.064 0.327,-0.064C0.362,-0.064 0.391,-0.073 0.415,-0.092C0.438,-0.11 0.456,-0.135 0.468,-0.167C0.48,-0.199 0.486,-0.234 0.486,-0.273C0.486,-0.311 0.48,-0.346 0.468,-0.377C0.456,-0.407 0.439,-0.432 0.415,-0.45C0.392,-0.468 0.362,-0.477 0.327,-0.477C0.293,-0.477 0.264,-0.469 0.241,-0.452C0.218,-0.434 0.2,-0.41 0.188,-0.38C0.176,-0.349 0.17,-0.313 0.17,-0.273Z" style="fill:rgb(43,50,60);fill-rule:nonzero;"/>
                            </g>
                            <g transform="matrix(11.3975,0,0,11.3975,135.532,7.38223)">
                                <path d="M0.298,0.011C0.249,0.011 0.206,-0 0.169,-0.024C0.132,-0.047 0.103,-0.08 0.082,-0.122C0.061,-0.164 0.051,-0.214 0.051,-0.27C0.051,-0.327 0.061,-0.376 0.082,-0.419C0.103,-0.461 0.132,-0.494 0.169,-0.517C0.206,-0.541 0.249,-0.553 0.298,-0.553C0.348,-0.553 0.391,-0.541 0.428,-0.517C0.465,-0.494 0.494,-0.461 0.514,-0.419C0.535,-0.376 0.545,-0.327 0.545,-0.27C0.545,-0.214 0.535,-0.164 0.514,-0.122C0.494,-0.08 0.465,-0.047 0.428,-0.024C0.391,-0 0.348,0.011 0.298,0.011ZM0.298,-0.064C0.336,-0.064 0.366,-0.074 0.391,-0.093C0.415,-0.112 0.433,-0.137 0.444,-0.168C0.456,-0.2 0.462,-0.233 0.462,-0.27C0.462,-0.306 0.456,-0.34 0.444,-0.372C0.433,-0.403 0.415,-0.429 0.391,-0.448C0.366,-0.468 0.336,-0.477 0.298,-0.477C0.261,-0.477 0.23,-0.468 0.206,-0.448C0.182,-0.429 0.164,-0.403 0.152,-0.372C0.141,-0.34 0.135,-0.306 0.135,-0.27C0.135,-0.233 0.141,-0.2 0.152,-0.168C0.164,-0.137 0.182,-0.112 0.206,-0.093C0.23,-0.074 0.261,-0.064 0.298,-0.064Z" style="fill:rgb(43,50,60);fill-rule:nonzero;"/>
                            </g>
                            <g transform="matrix(11.3975,0,0,11.3975,142.331,7.38223)">
                                <path d="M0.298,0.011C0.249,0.011 0.206,-0 0.169,-0.024C0.132,-0.047 0.103,-0.08 0.082,-0.122C0.061,-0.164 0.051,-0.214 0.051,-0.27C0.051,-0.327 0.061,-0.376 0.082,-0.419C0.103,-0.461 0.132,-0.494 0.169,-0.517C0.206,-0.541 0.249,-0.553 0.298,-0.553C0.348,-0.553 0.391,-0.541 0.428,-0.517C0.465,-0.494 0.494,-0.461 0.514,-0.419C0.535,-0.376 0.545,-0.327 0.545,-0.27C0.545,-0.214 0.535,-0.164 0.514,-0.122C0.494,-0.08 0.465,-0.047 0.428,-0.024C0.391,-0 0.348,0.011 0.298,0.011ZM0.298,-0.064C0.336,-0.064 0.366,-0.074 0.391,-0.093C0.415,-0.112 0.433,-0.137 0.444,-0.168C0.456,-0.2 0.462,-0.233 0.462,-0.27C0.462,-0.306 0.456,-0.34 0.444,-0.372C0.433,-0.403 0.415,-0.429 0.391,-0.448C0.366,-0.468 0.336,-0.477 0.298,-0.477C0.261,-0.477 0.23,-0.468 0.206,-0.448C0.182,-0.429 0.164,-0.403 0.152,-0.372C0.141,-0.34 0.135,-0.306 0.135,-0.27C0.135,-0.233 0.141,-0.2 0.152,-0.168C0.164,-0.137 0.182,-0.112 0.206,-0.093C0.23,-0.074 0.261,-0.064 0.298,-0.064Z" style="fill:rgb(43,50,60);fill-rule:nonzero;"/>
                            </g>
                            <g transform="matrix(11.3975,0,0,11.3975,149.131,7.38223)">
                                <path d="M0.155,-0.199L0.153,-0.303L0.17,-0.303L0.409,-0.545L0.513,-0.545L0.259,-0.288L0.251,-0.288L0.155,-0.199ZM0.077,-0L0.077,-0.727L0.161,-0.727L0.161,-0L0.077,-0ZM0.423,-0L0.21,-0.27L0.27,-0.328L0.53,-0L0.423,-0Z" style="fill:rgb(43,50,60);fill-rule:nonzero;"/>
                            </g>
                        </g>
                    </g>
                </g>
            </g>
        </g>
    </g>
</svg>
